<?xml version="1.0" encoding="UTF-8" standalone="no"?><!-- Generator: Gravit.io --><svg xmlns="http://www.w3.org/2000/svg" xmlns:xlink="http://www.w3.org/1999/xlink" style="isolation:isolate" viewBox="566 295 761 761" width="761pt" height="761pt"><defs><clipPath id="_clipPath_orYuvbpqWgdPFLE5fDT2WNygpeJovmtY"><rect x="566" y="295" width="761" height="761"/></clipPath></defs><g clip-path="url(#_clipPath_orYuvbpqWgdPFLE5fDT2WNygpeJovmtY)"><circle vector-effect="non-scaling-stroke" cx="946.5" cy="675.5" r="380.5" fill="rgb(255,255,157)"/><g clip-path="url(#_clipPath_BLjnm6sbuIVqls9AhgCvoDupGfmLdHum)"><text transform="matrix(1,0,0,1,919.198,357.167)" style="font-family:'Open Sans';font-weight:400;font-size:46px;font-style:normal;fill:#000000;stroke:none;">12</text></g><defs><clipPath id="_clipPath_BLjnm6sbuIVqls9AhgCvoDupGfmLdHum"><rect x="0" y="0" width="57" height="61" transform="matrix(1,0,0,1,918,308)"/></clipPath></defs><g clip-path="url(#_clipPath_TZcwN95CWYda6kqL9gvppJ1iXgQPB1Dv)"><text transform="matrix(1,0,0,1,932.349,1031.167)" style="font-family:'Open Sans';font-weight:400;font-size:46px;font-style:normal;fill:#000000;stroke:none;">6</text></g><defs><clipPath id="_clipPath_TZcwN95CWYda6kqL9gvppJ1iXgQPB1Dv"><rect x="0" y="0" width="57" height="61" transform="matrix(1,0,0,1,918,982)"/></clipPath></defs><g clip-path="url(#_clipPath_f8YoIkIQf4PaFaBBJp8Kfvr0DPtTrWLg)"><text transform="matrix(1,0,0,1,1086.602,418.167)" style="font-family:'Open Sans';font-weight:400;font-size:46px;font-style:normal;fill:#000000;stroke:none;">1</text></g><defs><clipPath id="_clipPath_f8YoIkIQf4PaFaBBJp8Kfvr0DPtTrWLg"><rect x="0" y="0" width="57" height="61" transform="matrix(1,0,0,1,1072.253,369)"/></clipPath></defs><g clip-path="url(#_clipPath_cdyMlCxb6Vvz1xDhqyXXYZocmUofhWgu)"><text transform="matrix(1,0,0,1,1214.349,535.167)" style="font-family:'Open Sans';font-weight:400;font-size:46px;font-style:normal;fill:#000000;stroke:none;">2</text></g><defs><clipPath id="_clipPath_cdyMlCxb6Vvz1xDhqyXXYZocmUofhWgu"><rect x="0" y="0" width="57" height="61" transform="matrix(1,0,0,1,1200,486)"/></clipPath></defs><g clip-path="url(#_clipPath_Glei58dX8FmwCFGFzbxxETZmutq8fb6L)"><text transform="matrix(1,0,0,1,637.198,535.167)" style="font-family:'Open Sans';font-weight:400;font-size:46px;font-style:normal;fill:#000000;stroke:none;">10</text></g><defs><clipPath id="_clipPath_Glei58dX8FmwCFGFzbxxETZmutq8fb6L"><rect x="0" y="0" width="57" height="61" transform="matrix(1,0,0,1,636,486)"/></clipPath></defs><g clip-path="url(#_clipPath_ZjdEZwCSTuZwVoTkUOmBq7NkN2LlcCDS)"><text transform="matrix(1,0,0,1,764.945,418.167)" style="font-family:'Open Sans';font-weight:400;font-size:46px;font-style:normal;fill:#000000;stroke:none;">11</text></g><defs><clipPath id="_clipPath_ZjdEZwCSTuZwVoTkUOmBq7NkN2LlcCDS"><rect x="0" y="0" width="57" height="61" transform="matrix(1,0,0,1,763.747,369)"/></clipPath></defs><g clip-path="url(#_clipPath_1LL7I6WZ11FRvpd4AmleEpPvbjJmvIo7)"><text transform="matrix(1,0,0,1,1214.349,853.167)" style="font-family:'Open Sans';font-weight:400;font-size:46px;font-style:normal;fill:#000000;stroke:none;">4</text></g><defs><clipPath id="_clipPath_1LL7I6WZ11FRvpd4AmleEpPvbjJmvIo7"><rect x="0" y="0" width="57" height="61" transform="matrix(1,0,0,1,1200,804)"/></clipPath></defs><g clip-path="url(#_clipPath_5pDjtFDcW98IVZxzid2Q3kIqal05RxVV)"><text transform="matrix(1,0,0,1,650.349,860.167)" style="font-family:'Open Sans';font-weight:400;font-size:46px;font-style:normal;fill:#000000;stroke:none;">8</text></g><defs><clipPath id="_clipPath_5pDjtFDcW98IVZxzid2Q3kIqal05RxVV"><rect x="0" y="0" width="57" height="61" transform="matrix(1,0,0,1,636,811)"/></clipPath></defs><g clip-path="url(#_clipPath_EZOuvRohJy7TNQ19vzvIVi9IQknc6FZS)"><text transform="matrix(1,0,0,1,778.096,970.167)" style="font-family:'Open Sans';font-weight:400;font-size:46px;font-style:normal;fill:#000000;stroke:none;">7</text></g><defs><clipPath id="_clipPath_EZOuvRohJy7TNQ19vzvIVi9IQknc6FZS"><rect x="0" y="0" width="57" height="61" transform="matrix(1,0,0,1,763.747,921)"/></clipPath></defs><g clip-path="url(#_clipPath_K9WAhwQkCxANiUL8WAdI4FVlIQa2gUFt)"><text transform="matrix(1,0,0,1,1086.602,970.167)" style="font-family:'Open Sans';font-weight:400;font-size:46px;font-style:normal;fill:#000000;stroke:none;">5</text></g><defs><clipPath id="_clipPath_K9WAhwQkCxANiUL8WAdI4FVlIQa2gUFt"><rect x="0" y="0" width="57" height="61" transform="matrix(1,0,0,1,1072.253,921)"/></clipPath></defs><g clip-path="url(#_clipPath_n5AV9xAwb2VieV6CitDsTWQpsrnhJw9H)"><text transform="matrix(1,0,0,1,593.349,694.167)" style="font-family:'Open Sans';font-weight:400;font-size:46px;font-style:normal;fill:#000000;stroke:none;">9</text></g><defs><clipPath id="_clipPath_n5AV9xAwb2VieV6CitDsTWQpsrnhJw9H"><rect x="0" y="0" width="57" height="61" transform="matrix(1,0,0,1,579,645)"/></clipPath></defs><g clip-path="url(#_clipPath_LJznlIbjgeF3drhTQvo8iCxopN3oyUPS)"><text transform="matrix(1,0,0,1,1271.349,694.167)" style="font-family:'Open Sans';font-weight:400;font-size:46px;font-style:normal;fill:#000000;stroke:none;">3</text></g><defs><clipPath id="_clipPath_LJznlIbjgeF3drhTQvo8iCxopN3oyUPS"><rect x="0" y="0" width="57" height="61" transform="matrix(1,0,0,1,1257,645)"/></clipPath></defs><circle vector-effect="non-scaling-stroke" cx="946.5" cy="675.5" r="8.25" fill="rgb(0,0,0)"/><g clip-path="url(#_clipPath_NvhvmqPsJK6XragF7K36JXH8v3ffqR38)"><text transform="matrix(1,0,0,1,880.363,802.297)" style="font-family:'Orbitron';font-weight:400;font-size:27px;font-style:normal;fill:#000000;stroke:none;">not rolex</text></g><defs><clipPath id="_clipPath_NvhvmqPsJK6XragF7K36JXH8v3ffqR38"><rect x="0" y="0" width="135.5" height="29" transform="matrix(1,0,0,1,878.75,775)"/></clipPath></defs></g></svg>