<?xml version="1.0" encoding="UTF-8" standalone="no"?><!-- Generator: Gravit.io --><svg xmlns="http://www.w3.org/2000/svg" xmlns:xlink="http://www.w3.org/1999/xlink" style="isolation:isolate" viewBox="566 295 761 761" width="761pt" height="761pt"><defs><clipPath id="_clipPath_Tw4FQ1NoBU6U0SvGg9XamEV5Oijcz9Wz"><rect x="566" y="295" width="761" height="761"/></clipPath></defs><g clip-path="url(#_clipPath_Tw4FQ1NoBU6U0SvGg9XamEV5Oijcz9Wz)"><circle vector-effect="non-scaling-stroke" cx="946.5" cy="675.5" r="380.5" fill="rgb(226,255,255)"/><g clip-path="url(#_clipPath_5Pe7wPPaSNzUGlpd87GAeNVLnvQ89Auw)"><text transform="matrix(1,0,0,1,919.198,357.167)" style="font-family:'Open Sans';font-weight:400;font-size:46px;font-style:normal;fill:#000000;stroke:none;">12</text></g><defs><clipPath id="_clipPath_5Pe7wPPaSNzUGlpd87GAeNVLnvQ89Auw"><rect x="0" y="0" width="57" height="61" transform="matrix(1,0,0,1,918,308)"/></clipPath></defs><g clip-path="url(#_clipPath_CZFGOYwIW7l6w4rxbkA5Rxw66O50ayLt)"><text transform="matrix(1,0,0,1,932.349,1031.167)" style="font-family:'Open Sans';font-weight:400;font-size:46px;font-style:normal;fill:#000000;stroke:none;">6</text></g><defs><clipPath id="_clipPath_CZFGOYwIW7l6w4rxbkA5Rxw66O50ayLt"><rect x="0" y="0" width="57" height="61" transform="matrix(1,0,0,1,918,982)"/></clipPath></defs><g clip-path="url(#_clipPath_3CwFh89yVNrerHuBimMxlSEGUHYW5GpO)"><text transform="matrix(1,0,0,1,1086.602,418.167)" style="font-family:'Open Sans';font-weight:400;font-size:46px;font-style:normal;fill:#000000;stroke:none;">1</text></g><defs><clipPath id="_clipPath_3CwFh89yVNrerHuBimMxlSEGUHYW5GpO"><rect x="0" y="0" width="57" height="61" transform="matrix(1,0,0,1,1072.253,369)"/></clipPath></defs><g clip-path="url(#_clipPath_TWouDC74P378hWKjwncYylGoJeNebO96)"><text transform="matrix(1,0,0,1,1214.349,535.167)" style="font-family:'Open Sans';font-weight:400;font-size:46px;font-style:normal;fill:#000000;stroke:none;">2</text></g><defs><clipPath id="_clipPath_TWouDC74P378hWKjwncYylGoJeNebO96"><rect x="0" y="0" width="57" height="61" transform="matrix(1,0,0,1,1200,486)"/></clipPath></defs><g clip-path="url(#_clipPath_w1JjPyV6VGwED3H69kxE0mfVCpDGHflG)"><text transform="matrix(1,0,0,1,637.198,535.167)" style="font-family:'Open Sans';font-weight:400;font-size:46px;font-style:normal;fill:#000000;stroke:none;">10</text></g><defs><clipPath id="_clipPath_w1JjPyV6VGwED3H69kxE0mfVCpDGHflG"><rect x="0" y="0" width="57" height="61" transform="matrix(1,0,0,1,636,486)"/></clipPath></defs><g clip-path="url(#_clipPath_eZbAphhhrQv4VI5gtWAT0YDCBi2sPqQK)"><text transform="matrix(1,0,0,1,764.945,418.167)" style="font-family:'Open Sans';font-weight:400;font-size:46px;font-style:normal;fill:#000000;stroke:none;">11</text></g><defs><clipPath id="_clipPath_eZbAphhhrQv4VI5gtWAT0YDCBi2sPqQK"><rect x="0" y="0" width="57" height="61" transform="matrix(1,0,0,1,763.747,369)"/></clipPath></defs><g clip-path="url(#_clipPath_U8XyHKQv5G2HB4O8Jm1SsYgCY7gjxDub)"><text transform="matrix(1,0,0,1,1214.349,853.167)" style="font-family:'Open Sans';font-weight:400;font-size:46px;font-style:normal;fill:#000000;stroke:none;">4</text></g><defs><clipPath id="_clipPath_U8XyHKQv5G2HB4O8Jm1SsYgCY7gjxDub"><rect x="0" y="0" width="57" height="61" transform="matrix(1,0,0,1,1200,804)"/></clipPath></defs><g clip-path="url(#_clipPath_KndmXD9kgELY18tARHOF7Qt9FwIDOprS)"><text transform="matrix(1,0,0,1,650.349,860.167)" style="font-family:'Open Sans';font-weight:400;font-size:46px;font-style:normal;fill:#000000;stroke:none;">8</text></g><defs><clipPath id="_clipPath_KndmXD9kgELY18tARHOF7Qt9FwIDOprS"><rect x="0" y="0" width="57" height="61" transform="matrix(1,0,0,1,636,811)"/></clipPath></defs><g clip-path="url(#_clipPath_d8wcYG8D893a721YGavamlGt9WMw87ej)"><text transform="matrix(1,0,0,1,778.096,970.167)" style="font-family:'Open Sans';font-weight:400;font-size:46px;font-style:normal;fill:#000000;stroke:none;">7</text></g><defs><clipPath id="_clipPath_d8wcYG8D893a721YGavamlGt9WMw87ej"><rect x="0" y="0" width="57" height="61" transform="matrix(1,0,0,1,763.747,921)"/></clipPath></defs><g clip-path="url(#_clipPath_ZncbkRRWkj9lgLmCCPbQJkDqgRwes5uJ)"><text transform="matrix(1,0,0,1,1086.602,970.167)" style="font-family:'Open Sans';font-weight:400;font-size:46px;font-style:normal;fill:#000000;stroke:none;">5</text></g><defs><clipPath id="_clipPath_ZncbkRRWkj9lgLmCCPbQJkDqgRwes5uJ"><rect x="0" y="0" width="57" height="61" transform="matrix(1,0,0,1,1072.253,921)"/></clipPath></defs><g clip-path="url(#_clipPath_ZTjQTz5EiC73mvVr7za60hHCmEHbUJc1)"><text transform="matrix(1,0,0,1,593.349,694.167)" style="font-family:'Open Sans';font-weight:400;font-size:46px;font-style:normal;fill:#000000;stroke:none;">9</text></g><defs><clipPath id="_clipPath_ZTjQTz5EiC73mvVr7za60hHCmEHbUJc1"><rect x="0" y="0" width="57" height="61" transform="matrix(1,0,0,1,579,645)"/></clipPath></defs><g clip-path="url(#_clipPath_li81M4mVEH3T9p4XKBIDo9QAfZ9w8eAz)"><text transform="matrix(1,0,0,1,1271.349,694.167)" style="font-family:'Open Sans';font-weight:400;font-size:46px;font-style:normal;fill:#000000;stroke:none;">3</text></g><defs><clipPath id="_clipPath_li81M4mVEH3T9p4XKBIDo9QAfZ9w8eAz"><rect x="0" y="0" width="57" height="61" transform="matrix(1,0,0,1,1257,645)"/></clipPath></defs><circle vector-effect="non-scaling-stroke" cx="946.5" cy="675.5" r="8.25" fill="rgb(0,0,0)"/></g></svg>